<?xml version="1.0" encoding="utf-8"?>
<!-- Generator: Adobe Illustrator 23.0.1, SVG Export Plug-In . SVG Version: 6.00 Build 0)  -->
<svg version="1.1" id="Layer_1" xmlns="http://www.w3.org/2000/svg" xmlns:xlink="http://www.w3.org/1999/xlink" x="0px" y="0px"
	 viewBox="0 0 1000 1000" style="enable-background:new 0 0 1000 1000;" xml:space="preserve">
<style type="text/css">
	.st0{fill:#507997;}
	.st1{fill:#F58220;}
</style>
<g>
	<path class="st0" d="M369.9,772.6c0,0-38.4,23.3,26.7,30c78.3,10,120,8.3,206.7-8.3c17.4,10.7,35.8,19.6,55,26.7
		C463.3,904.4,216.5,816,369.9,772.6L369.9,772.6z M344.9,664.3c0,0-41.7,31.7,23.3,38.4c85,8.3,151.7,10,266.7-13.3
		c11.2,11.3,24.9,19.9,40,25C440,784.3,176.6,721,344.9,664.3L344.9,664.3z M805,854.3c0,0,28.3,23.3-31.7,41.7
		c-111.7,33.4-468.4,43.4-568.4,0c-35-15,31.7-36.7,53-40c21.7-5,33.4-5,33.4-5c-38.4-26.7-255,55-110,78.3
		c398.4,65,726.8-28.3,623.4-75L805,854.3z M387.9,550.9c0,0-181.7,43.4-65,58.3c50,6.7,148.3,5,240-1.7c75-6.7,150.1-20,150.1-20
		s-26.7,11.7-45,23.3c-185,48.4-540.1,26.7-438.4-23.3C316.3,546,388,551,387.9,550.9L387.9,550.9z M713,732.6
		c186.7-96.7,100-190,40-178.4c-15,3.3-21.7,6.7-21.7,6.7s5-10,16.7-13.3c118.4-41.7,211.7,125-38.4,190
		C709.6,737.6,711.3,736,713,732.6L713,732.6z M406.3,996c180,11.7,455.1-6.7,461.7-91.7c0,0-13.3,33.4-148.3,58.3
		c-153.4,28.3-343.4,25-455.1,6.7C264.6,969.3,288,989.2,406.3,996L406.3,996z"/>
	<path class="st1" d="M600,0.8c0,0,103.4,105-98.3,263.4c-161.7,128.3-36.7,201.7,0,285.1c-95-85-163.4-160-116.7-230
		C453.3,215.9,641.6,166.2,600,0.8z M546.9,479.3c48.4,55-13.3,105-13.3,105s123.4-63.3,66.7-141.7c-51.7-75-91.7-111.7,125-236.7
		C725.3,205.9,383.6,290.9,546.9,479.3z"/>
</g>
</svg>
